<svg xmlns="http://www.w3.org/2000/svg" xmlns:xlink="http://www.w3.org/1999/xlink" width="444" height="488pt" viewBox="0 0 333 488"><g id="graph0" class="graph" transform="scale(1 1) rotate(0) translate(4 484)"><title>levenshtein_dfa</title><polygon fill="#fff" stroke="transparent" points="-4 4 -4 -484 329 -484 329 4 -4 4"/><g id="node1" class="node"><title>0</title><ellipse cx="211" cy="-462" fill="none" stroke="#000" rx="18" ry="18"/><text x="211" y="-457.8" fill="#000" font-family="Helvetica,Arial,sans-serif" font-size="14" text-anchor="middle">0</text></g><g id="node2" class="node"><title>1</title><ellipse cx="157" cy="-373.2" fill="none" stroke="#000" rx="18" ry="18"/><text x="157" y="-369" fill="#000" font-family="Helvetica,Arial,sans-serif" font-size="14" text-anchor="middle">1</text></g><g id="edge1" class="edge"><title>0-&gt;1</title><path fill="none" stroke="#000" d="M201.5939,-446.5322C193.3592,-432.9906 181.2571,-413.0894 171.7374,-397.4348"/><polygon fill="#000" stroke="#000" points="174.666 -395.514 166.48 -388.788 168.685 -399.151 174.666 -395.514"/><text x="189.945" y="-413.4" fill="#000" font-family="Helvetica,Arial,sans-serif" font-size="14" text-anchor="middle">f</text></g><g id="node3" class="node"><title>2</title><ellipse cx="211" cy="-373.2" fill="none" stroke="#000" rx="18" ry="18"/><text x="211" y="-369" fill="#000" font-family="Helvetica,Arial,sans-serif" font-size="14" text-anchor="middle">2</text></g><g id="edge2" class="edge"><title>0-&gt;2</title><path fill="none" stroke="#000" d="M211,-443.6006C211,-431.4949 211,-415.4076 211,-401.6674"/><polygon fill="#000" stroke="#000" points="214.5 -401.272 211 -391.272 207.5 -401.272 214.5 -401.272"/><text x="214.891" y="-413.4" fill="#000" font-family="Helvetica,Arial,sans-serif" font-size="14" text-anchor="middle">o</text></g><g id="node4" class="node"><title>3</title><ellipse cx="265" cy="-373.2" fill="none" stroke="#000" rx="18" ry="18"/><text x="265" y="-369" fill="#000" font-family="Helvetica,Arial,sans-serif" font-size="14" text-anchor="middle">3</text></g><g id="edge3" class="edge"><title>0-&gt;3</title><path fill="none" stroke="#000" d="M220.4061,-446.5322C228.6408,-432.9906 240.7429,-413.0894 250.2626,-397.4348"/><polygon fill="#000" stroke="#000" points="253.315 -399.151 255.52 -388.788 247.334 -395.514 253.315 -399.151"/><text x="244.722" y="-413.4" fill="#000" font-family="Helvetica,Arial,sans-serif" font-size="14" text-anchor="middle">*</text></g><g id="node5" class="node"><title>4</title><ellipse cx="157" cy="-284.4" fill="none" stroke="#000" rx="18" ry="18"/><text x="157" y="-280.2" fill="#000" font-family="Helvetica,Arial,sans-serif" font-size="14" text-anchor="middle">4</text></g><g id="edge4" class="edge"><title>1-&gt;4</title><path fill="none" stroke="#000" d="M157,-354.8006C157,-342.6949 157,-326.6076 157,-312.8674"/><polygon fill="#000" stroke="#000" points="160.5 -312.472 157 -302.472 153.5 -312.472 160.5 -312.472"/><text x="158.945" y="-324.6" fill="#000" font-family="Helvetica,Arial,sans-serif" font-size="14" text-anchor="middle">f</text></g><g id="edge6" class="edge"><title>1-&gt;4</title><path fill="none" stroke="#000" d="M156.1231,-354.8902C155.8898,-349.221 155.6708,-342.9535 155.5554,-337.2 155.4057,-329.7348 155.4057,-327.8652 155.5554,-320.4 155.6041,-317.9728 155.6712,-315.454 155.7501,-312.9273"/><polygon fill="#000" stroke="#000" points="159.256 -312.831 156.123 -302.71 152.261 -312.575 159.256 -312.831"/><text x="158.722" y="-324.6" fill="#000" font-family="Helvetica,Arial,sans-serif" font-size="14" text-anchor="middle">*</text></g><g id="node6" class="node"><title>5</title><ellipse cx="103" cy="-284.4" fill="none" stroke="#000" rx="18" ry="18"/><text x="103" y="-280.2" fill="#000" font-family="Helvetica,Arial,sans-serif" font-size="14" text-anchor="middle">5</text></g><g id="edge5" class="edge"><title>1-&gt;5</title><path fill="none" stroke="#000" d="M147.5939,-357.7322C139.3592,-344.1906 127.2571,-324.2894 117.7374,-308.6348"/><polygon fill="#000" stroke="#000" points="120.666 -306.714 112.48 -299.988 114.685 -310.351 120.666 -306.714"/><text x="138.891" y="-324.6" fill="#000" font-family="Helvetica,Arial,sans-serif" font-size="14" text-anchor="middle">o</text></g><g id="node7" class="node"><title>6</title><ellipse cx="307" cy="-284.4" fill="none" stroke="#000" rx="18" ry="18"/><text x="307" y="-280.2" fill="#000" font-family="Helvetica,Arial,sans-serif" font-size="14" text-anchor="middle">6</text></g><g id="edge7" class="edge"><title>2-&gt;6</title><path fill="none" stroke="#000" d="M224.3484,-360.8527C240.3968,-346.0079 267.511,-320.9274 286.2858,-303.5607"/><polygon fill="#000" stroke="#000" points="288.801 -306.002 293.765 -296.642 284.047 -300.863 288.801 -306.002"/><text x="268.945" y="-324.6" fill="#000" font-family="Helvetica,Arial,sans-serif" font-size="14" text-anchor="middle">f</text></g><g id="node8" class="node"><title>7</title><ellipse cx="190" cy="-195.6" fill="none" stroke="#000" rx="18" ry="18"/><text x="190" y="-191.4" fill="#000" font-family="Helvetica,Arial,sans-serif" font-size="14" text-anchor="middle">7</text></g><g id="edge8" class="edge"><title>2-&gt;7</title><path fill="none" stroke="#000" d="M208.8708,-355.1934C205.2075,-324.212 197.6865,-260.606 193.3267,-223.7346"/><polygon fill="#000" stroke="#000" points="196.785 -223.174 192.135 -213.654 189.833 -223.996 196.785 -223.174"/><text x="205.891" y="-280.2" fill="#000" font-family="Helvetica,Arial,sans-serif" font-size="14" text-anchor="middle">o</text></g><g id="edge9" class="edge"><title>3-&gt;6</title><path fill="none" stroke="#000" d="M272.7034,-356.9127C278.881,-343.8515 287.6665,-325.2765 294.7989,-310.1966"/><polygon fill="#000" stroke="#000" points="298.091 -311.421 299.203 -300.885 291.764 -308.428 298.091 -311.421"/><text x="290.945" y="-324.6" fill="#000" font-family="Helvetica,Arial,sans-serif" font-size="14" text-anchor="middle">f</text></g><g id="node9" class="node"><title>8</title><ellipse cx="263" cy="-195.6" fill="none" stroke="#000" rx="18" ry="18"/><text x="263" y="-191.4" fill="#000" font-family="Helvetica,Arial,sans-serif" font-size="14" text-anchor="middle">8</text></g><g id="edge10" class="edge"><title>3-&gt;8</title><path fill="none" stroke="#000" d="M264.7972,-355.1934C264.4483,-324.212 263.732,-260.606 263.3168,-223.7346"/><polygon fill="#000" stroke="#000" points="266.816 -223.614 263.203 -213.654 259.816 -223.693 266.816 -223.614"/><text x="267.891" y="-280.2" fill="#000" font-family="Helvetica,Arial,sans-serif" font-size="14" text-anchor="middle">o</text></g><g id="edge11" class="edge"><title>4-&gt;7</title><path fill="none" stroke="#000" d="M163.3627,-267.2785C168.1106,-254.5023 174.6869,-236.8062 180.1171,-222.194"/><polygon fill="#000" stroke="#000" points="183.454 -223.262 183.657 -212.669 176.893 -220.823 183.454 -223.262"/><text x="180.891" y="-235.8" fill="#000" font-family="Helvetica,Arial,sans-serif" font-size="14" text-anchor="middle">o</text></g><g id="edge14" class="edge"><title>5-&gt;7</title><path fill="none" stroke="#000" d="M115.8371,-271.2973C130.1833,-256.6543 153.5826,-232.7709 170.2601,-215.7483"/><polygon fill="#000" stroke="#000" points="172.895 -218.06 177.393 -208.468 167.895 -213.161 172.895 -218.06"/><text x="157.722" y="-235.8" fill="#000" font-family="Helvetica,Arial,sans-serif" font-size="14" text-anchor="middle">*</text></g><g id="node10" class="node"><title>9</title><ellipse cx="60" cy="-195.6" fill="#d3d3d3" stroke="#000" rx="18" ry="18"/><text x="60" y="-191.4" fill="#000" font-family="Helvetica,Arial,sans-serif" font-size="14" text-anchor="middle">9(1)</text></g><g id="edge12" class="edge"><title>5-&gt;9</title><path fill="none" stroke="#000" d="M95.1131,-268.1127C88.7885,-255.0515 79.7938,-236.4765 72.4916,-221.3966"/><polygon fill="#000" stroke="#000" points="75.491 -219.56 67.983 -212.085 69.191 -222.611 75.491 -219.56"/><text x="89.891" y="-235.8" fill="#000" font-family="Helvetica,Arial,sans-serif" font-size="14" text-anchor="middle">o</text></g><g id="node11" class="node"><title>10</title><ellipse cx="126" cy="-195.6" fill="#d3d3d3" stroke="#000" rx="18" ry="18"/><text x="126" y="-191.4" fill="#000" font-family="Helvetica,Arial,sans-serif" font-size="14" text-anchor="middle">10(1)</text></g><g id="edge13" class="edge"><title>5-&gt;10</title><path fill="none" stroke="#000" d="M107.5441,-266.856C110.7887,-254.3287 115.2168,-237.2326 118.9222,-222.9264"/><polygon fill="#000" stroke="#000" points="122.346 -223.666 121.465 -213.108 115.57 -221.911 122.346 -223.666"/><text x="120.891" y="-235.8" fill="#000" font-family="Helvetica,Arial,sans-serif" font-size="14" text-anchor="middle">d</text></g><g id="edge15" class="edge"><title>6-&gt;8</title><path fill="none" stroke="#000" d="M298.9297,-268.1127C292.4172,-254.9694 283.1382,-236.2426 275.6413,-221.1125"/><polygon fill="#000" stroke="#000" points="278.595 -219.19 271.019 -211.784 272.323 -222.298 278.595 -219.19"/><text x="291.891" y="-235.8" fill="#000" font-family="Helvetica,Arial,sans-serif" font-size="14" text-anchor="middle">o</text></g><g id="node12" class="node"><title>11</title><ellipse cx="170" cy="-106.8" fill="none" stroke="#000" rx="18" ry="18"/><text x="170" y="-102.6" fill="#000" font-family="Helvetica,Arial,sans-serif" font-size="14" text-anchor="middle">11</text></g><g id="edge16" class="edge"><title>7-&gt;11</title><path fill="none" stroke="#000" d="M185.9527,-177.63C183.1694,-165.2722 179.4189,-148.6197 176.2537,-134.5662"/><polygon fill="#000" stroke="#000" points="179.585 -133.427 173.973 -124.44 172.756 -134.965 179.585 -133.427"/><text x="184.891" y="-147" fill="#000" font-family="Helvetica,Arial,sans-serif" font-size="14" text-anchor="middle">o</text></g><g id="node13" class="node"><title>12</title><ellipse cx="113" cy="-18" fill="#d3d3d3" stroke="#000" rx="18" ry="18"/><text x="113" y="-13.8" fill="#000" font-family="Helvetica,Arial,sans-serif" font-size="14" text-anchor="middle">12(1)</text></g><g id="edge17" class="edge"><title>7-&gt;12</title><path fill="none" stroke="#000" d="M195.7305,-178.1814C201.8942,-156.377 209.2729,-118.3097 197,-88.8 185.9488,-62.2279 158.7426,-42.3831 138.2647,-30.5667"/><polygon fill="#000" stroke="#000" points="139.862 -27.451 129.412 -25.707 136.494 -33.587 139.862 -27.451"/><text x="206.891" y="-102.6" fill="#000" font-family="Helvetica,Arial,sans-serif" font-size="14" text-anchor="middle">d</text></g><g id="edge18" class="edge"><title>8-&gt;11</title><path fill="none" stroke="#000" d="M249.6754,-182.8771C234.3441,-168.2382 208.9734,-144.0133 190.9836,-126.8359"/><polygon fill="#000" stroke="#000" points="192.95 -123.874 183.3 -119.499 188.115 -128.937 192.95 -123.874"/><text x="227.891" y="-147" fill="#000" font-family="Helvetica,Arial,sans-serif" font-size="14" text-anchor="middle">o</text></g><g id="node14" class="node"><title>13</title><ellipse cx="18" cy="-106.8" fill="#d3d3d3" stroke="#000" rx="18" ry="18"/><text x="18" y="-102.6" fill="#000" font-family="Helvetica,Arial,sans-serif" font-size="14" text-anchor="middle">13(1)</text></g><g id="edge19" class="edge"><title>9-&gt;13</title><path fill="none" stroke="#000" d="M44.2356,-186.804C34.7839,-180.5699 23.5878,-171.2526 18.2174,-159.6 14.7103,-151.9903 13.6799,-143.0834 13.8048,-134.7757"/><polygon fill="#000" stroke="#000" points="17.302 -134.928 14.481 -124.716 10.318 -134.459 17.302 -134.928"/><text x="22.891" y="-147" fill="#000" font-family="Helvetica,Arial,sans-serif" font-size="14" text-anchor="middle">o</text></g><g id="edge21" class="edge"><title>9-&gt;13</title><path fill="none" stroke="#000" d="M52.2966,-179.3127C46.119,-166.2515 37.3335,-147.6765 30.2011,-132.5966"/><polygon fill="#000" stroke="#000" points="33.236 -130.828 25.797 -123.285 26.909 -133.821 33.236 -130.828"/><text x="45.722" y="-147" fill="#000" font-family="Helvetica,Arial,sans-serif" font-size="14" text-anchor="middle">*</text></g><g id="node15" class="node"><title>14</title><ellipse cx="72" cy="-106.8" fill="#d3d3d3" stroke="#000" rx="18" ry="18"/><text x="72" y="-102.6" fill="#000" font-family="Helvetica,Arial,sans-serif" font-size="14" text-anchor="middle">14(0)</text></g><g id="edge20" class="edge"><title>9-&gt;14</title><path fill="none" stroke="#000" d="M62.4284,-177.63C64.0874,-165.353 66.3193,-148.8372 68.2105,-134.8421"/><polygon fill="#000" stroke="#000" points="71.704 -135.122 69.575 -124.743 64.767 -134.185 71.704 -135.122"/><text x="71.891" y="-147" fill="#000" font-family="Helvetica,Arial,sans-serif" font-size="14" text-anchor="middle">d</text></g><g id="edge22" class="edge"><title>10-&gt;11</title><path fill="none" stroke="#000" d="M134.0703,-179.3127C140.5828,-166.1694 149.8618,-147.4426 157.3587,-132.3125"/><polygon fill="#000" stroke="#000" points="160.677 -133.498 161.981 -122.984 154.405 -130.39 160.677 -133.498"/><text x="155.891" y="-147" fill="#000" font-family="Helvetica,Arial,sans-serif" font-size="14" text-anchor="middle">o</text></g><g id="edge23" class="edge"><title>10-&gt;12</title><path fill="none" stroke="#000" d="M124.6819,-177.5934C122.4142,-146.612 117.7583,-83.006 115.0594,-46.1346"/><polygon fill="#000" stroke="#000" points="118.542 -45.772 114.322 -36.054 111.561 -46.283 118.542 -45.772"/><text x="124.891" y="-102.6" fill="#000" font-family="Helvetica,Arial,sans-serif" font-size="14" text-anchor="middle">d</text></g><g id="edge24" class="edge"><title>11-&gt;12</title><path fill="none" stroke="#000" d="M161.5849,-90.7772C155.8346,-80.1448 147.859,-65.9928 140,-54 137.0775,-49.5402 133.7942,-44.8997 130.5502,-40.4917"/><polygon fill="#000" stroke="#000" points="133.277 -38.294 124.466 -32.41 127.685 -42.505 133.277 -38.294"/><text x="153.891" y="-58.2" fill="#000" font-family="Helvetica,Arial,sans-serif" font-size="14" text-anchor="middle">d</text></g><g id="edge25" class="edge"><title>13-&gt;12</title><path fill="none" stroke="#000" d="M29.0516,-92.0851C37.7254,-81.0086 50.4346,-65.7741 63.2174,-54 71.136,-46.7062 80.5495,-39.5675 89.0481,-33.5954"/><polygon fill="#000" stroke="#000" points="91.192 -36.37 97.472 -27.837 87.242 -30.591 91.192 -36.37"/><text x="67.891" y="-58.2" fill="#000" font-family="Helvetica,Arial,sans-serif" font-size="14" text-anchor="middle">d</text></g><g id="edge26" class="edge"><title>14-&gt;12</title><path fill="none" stroke="#000" d="M79.7118,-90.0974C85.7248,-77.0741 94.1818,-58.7574 101.0669,-43.8455"/><polygon fill="#000" stroke="#000" points="104.308 -45.174 105.323 -34.628 97.953 -42.239 104.308 -45.174"/><text x="100.891" y="-58.2" fill="#000" font-family="Helvetica,Arial,sans-serif" font-size="14" text-anchor="middle">d</text></g><g id="edge27" class="edge"><title>14-&gt;12</title><path fill="none" stroke="#000" d="M71.9481,-88.4225C72.5604,-77.8966 74.4493,-64.6966 79.5554,-54 82.4978,-47.8362 86.8709,-42.0067 91.4921,-36.9052"/><polygon fill="#000" stroke="#000" points="94.234 -39.111 98.788 -29.544 89.263 -34.183 94.234 -39.111"/><text x="82.722" y="-58.2" fill="#000" font-family="Helvetica,Arial,sans-serif" font-size="14" text-anchor="middle">*</text></g></g></svg>